<?xml version="1.0" encoding="UTF-8"?>
<svg version="1.1" xmlns="http://www.w3.org/2000/svg" width="259" height="222">
<path d="M0 0 C85.47 0 170.94 0 259 0 C259 73.26 259 146.52 259 222 C173.53 222 88.06 222 0 222 C0 148.74 0 75.48 0 0 Z " fill="#F0F1F2" transform="translate(0,0)"/>
<path d="M0 0 C4.43696806 2.85862675 8.24674724 6.12089321 11.8125 10 C12.8953125 10.99 12.8953125 10.99 14 12 C17.94718423 11.766833 19.86577313 9.43339874 22.5625 6.75 C32.64038769 -2.64007933 43.08893021 -4.48054951 56.30859375 -4.27734375 C61.62211048 -4.06739351 65.58512671 -3.00886269 70 0 C70.67933594 0.42410156 71.35867187 0.84820312 72.05859375 1.28515625 C80.80714892 7.22226647 86.75229452 15.64449974 89 26 C90.26587491 38.74505876 88.10557888 48.20477756 80.33984375 58.37109375 C76.66811497 62.49642508 72.48082871 65.79547291 68 69 C68.52521106 72.78476837 69.23242339 75.89591252 70.9375 79.3125 C76.39680184 91.22370401 76.46787147 103.71787558 72 116 C66.7770606 129.41578552 56.58176343 138.89565225 43.875 145.1875 C26.38287089 152.86549676 7.79829998 153.14824537 -9.92089844 146.25244141 C-22.92958809 140.75965876 -33.48115531 132.21890715 -39.28515625 119.09375 C-44.43060639 105.37254962 -44.93564789 91.52479769 -39 78 C-38.401875 76.845 -37.80375 75.69 -37.1875 74.5 C-35.81130679 72.15873401 -35.81130679 72.15873401 -36.19921875 70.015625 C-37.214876 67.45914139 -38.34045793 66.74950638 -40.625 65.25 C-48.96411364 59.25299878 -54.42949249 52.06687742 -57 42 C-58.66609375 30.32599046 -57.06909108 19.86158336 -49.9453125 10.21875 C-37.2597003 -4.70549965 -17.80632103 -8.96872134 0 0 Z " fill="#0C0D0F" transform="translate(114,59)"/>
<path d="M0 0 C0.33 0 0.66 0 1 0 C1.15855469 0.6290625 1.31710938 1.258125 1.48046875 1.90625 C4.49190093 12.95371391 9.94548263 21.07136309 19.90234375 27.1640625 C22.56143954 28.22373941 25.17201226 28.61436531 28 29 C28.12528076 29.67877197 28.25056152 30.35754395 28.37963867 31.05688477 C33.21137259 56.94665177 39.7471399 77.81938182 57 98 C57.58265625 98.68578125 58.1653125 99.3715625 58.765625 100.078125 C72.97580379 115.43660106 94.669033 125.30699452 115 129 C115 129.33 115 129.66 115 130 C77.05 130 39.1 130 0 130 C0 87.1 0 44.2 0 0 Z " fill="#0D0D10" transform="translate(0,92)"/>
<path d="M0 0 C0.33 0 0.66 0 1 0 C1 41.58 1 83.16 1 126 C-37.28 126 -75.56 126 -115 126 C-115 125.67 -115 125.34 -115 125 C-114.14019531 124.84144531 -113.28039062 124.68289062 -112.39453125 124.51953125 C-84.86546511 119.08576792 -61.15732217 104.12256903 -45.38671875 80.76171875 C-34.18230194 63.47787676 -29.72724948 45.19938436 -27 25 C-26.05640625 24.77957031 -26.05640625 24.77957031 -25.09375 24.5546875 C-15.12810232 21.94320754 -8.3064052 16.89360123 -3 8 C-1.80343758 5.35401669 -0.89104963 2.7721544 0 0 Z " fill="#0C0D10" transform="translate(258,96)"/>
<path d="M0 0 C38.61 0 77.22 0 117 0 C117 0.33 117 0.66 117 1 C116.1028125 1.14695313 115.205625 1.29390625 114.28125 1.4453125 C86.87857035 6.37100078 62.75659611 20.22022405 46.60546875 43.359375 C44.67658694 46.20174223 42.82018556 49.08668625 41 52 C40.14921875 51.76603516 40.14921875 51.76603516 39.28125 51.52734375 C31.0092121 49.61514321 25.01290821 51.32818643 17.63671875 55.3515625 C14.59180567 57.25519705 12.27931749 59.22208181 10 62 C9.319375 62.7425 8.63875 63.485 7.9375 64.25 C5.76394377 67.33504755 4.36554036 70.43716259 2.9296875 73.9140625 C2 76 2 76 0 79 C0 52.93 0 26.86 0 0 Z " fill="#0C0D0F" transform="translate(0,0)"/>
<path d="M0 0 C38.61 0 77.22 0 117 0 C117 25.41 117 50.82 117 77 C115 74 115 74 113.80859375 71.58203125 C108.86721769 61.60073317 102.6273333 55.16617435 91.95703125 51.5546875 C88.58695597 50.92252014 85.83619742 51.24958571 82.4375 51.625 C79.12109375 51.73828125 79.12109375 51.73828125 76 51 C72.96593119 47.90186338 70.86022889 44.60426738 68.578125 40.94140625 C56.04990221 20.97149729 32.64682039 8.22409905 10.3671875 2.69140625 C6.92278209 1.98414435 3.48581593 1.45679267 0 1 C0 0.67 0 0.34 0 0 Z " fill="#0C0D0F" transform="translate(142,0)"/>
<path d="M0 0 C2.39039147 0.84237043 3.80670511 1.93196493 5.7421875 3.55859375 C18.02584168 13.10999588 33.28405476 12.7075751 48.1171875 11.74609375 C56.11901435 10.37811923 62.21542403 6.74959863 68.7421875 2.0390625 C71.1171875 0.74609375 71.1171875 0.74609375 73.3671875 0.984375 C75.1171875 1.74609375 75.1171875 1.74609375 76.1171875 2.74609375 C76.18492651 6.2007834 76.04256039 8.72201442 73.65234375 11.3671875 C60.19405595 21.96318096 42.89831897 25.64489812 26.1171875 23.74609375 C14.9213177 21.68213367 2.25038695 17.01925303 -4.8828125 7.74609375 C-5.46423874 4.69360597 -5.35367347 3.45238521 -3.6328125 0.87109375 C-1.8828125 -0.25390625 -1.8828125 -0.25390625 0 0 Z " fill="#EFF0F1" transform="translate(93.8828125,163.25390625)"/>
<path d="M0 0 C3.05774024 2.4944723 4.81888212 4.41651221 5.2734375 8.390625 C5.5818845 17.0745945 5.5818845 17.0745945 3 20.6875 C-0.31044889 23.23930436 -1.9718682 23.92252539 -6.06640625 23.57421875 C-8.80134832 22.76202383 -10.47248644 21.22928215 -12.08984375 18.91015625 C-14.40207699 14.05744356 -14.58191313 9.65385836 -12.8125 4.625 C-9.02661408 -0.8580072 -6.60349322 -1.76879283 0 0 Z " fill="#F1F1F2" transform="translate(167,89)"/>
<path d="M0 0 C3.20492037 2.7063772 5.76801017 4.88546978 6.23828125 9.171875 C6.4108458 15.16622263 5.98075605 18.43383865 2 23 C-0.85324437 24.42662219 -2.83454549 24.31033868 -6 24 C-9.37940996 21.84946639 -11.81543238 19.87676675 -13 16 C-13.42543885 10.63947052 -13.47662684 7.34578355 -10 3 C-6.83916213 -0.16083787 -4.41090304 -0.72014743 0 0 Z " fill="#F1F1F2" transform="translate(99,88)"/>
<path d="M0 0 C1.875 1.125 1.875 1.125 3 3 C2.92489508 6.52993137 2.39859994 8.45377045 0.3125 11.3125 C-2.58350659 13.42580211 -4.41315776 14 -8 14 C-10.375 12.0625 -10.375 12.0625 -12 10 C-10.42844799 3.71379195 -7.14760876 -1.31666477 0 0 Z " fill="#EEEFF0" transform="translate(146,127)"/>
<path d="M0 0 C3.78380671 0.14014099 6.26539617 0.51026412 9.4375 2.625 C11.5520177 5.83906691 11.28959898 8.23521325 11 12 C9.4375 13.1875 9.4375 13.1875 7 14 C3.39037979 12.86011993 0.77244555 11.72416771 -2 9.125 C-3.31975167 6.32052769 -2.99066528 4.89579082 -2 2 C-1.34 1.34 -0.68 0.68 0 0 Z " fill="#EFF0F1" transform="translate(113,127)"/>
<path d="M0 0 C0.33 0 0.66 0 1 0 C2.72006681 7.49949129 3.17547361 15.85518438 0 23 C-1.2281641 19.17904503 -1.13285092 15.48826961 -1.125 11.5 C-1.12757813 10.1903125 -1.13015625 8.880625 -1.1328125 7.53125 C-1.02924755 4.77764076 -0.83458014 2.59647153 0 0 Z " fill="#141416" transform="translate(187,147)"/>
<path d="M0 0 C2.77141717 -0.08089542 5.54047819 -0.14044062 8.3125 -0.1875 C9.09818359 -0.21263672 9.88386719 -0.23777344 10.69335938 -0.26367188 C11.45068359 -0.27333984 12.20800781 -0.28300781 12.98828125 -0.29296875 C14.03302612 -0.31653442 14.03302612 -0.31653442 15.09887695 -0.34057617 C17.54489783 0.09761557 18.42702086 1.13437358 20 3 C15.47497068 4.32675617 11.67874099 3.57249199 7.1875 2.5625 C6.49462891 2.41490234 5.80175781 2.26730469 5.08789062 2.11523438 C3.39003185 1.75224388 1.69473237 1.37731777 0 1 C0 0.67 0 0.34 0 0 Z " fill="#161718" transform="translate(142,0)"/>
<path d="M0 0 C1.05960938 0.00676758 1.05960938 0.00676758 2.140625 0.01367188 C3.88545275 0.02546125 5.630237 0.04339676 7.375 0.0625 C6.385 1.5475 6.385 1.5475 5.375 3.0625 C2.40625 3.42578125 2.40625 3.42578125 -1.125 3.375 C-2.87296875 3.36919922 -2.87296875 3.36919922 -4.65625 3.36328125 C-7.625 3.0625 -7.625 3.0625 -9.625 1.0625 C-6.55966836 -0.47016582 -3.35745728 -0.04026471 0 0 Z " fill="#D0D0D1" transform="translate(165.625,51.9375)"/>
<path d="M0 0 C0.66 0.33 1.32 0.66 2 1 C1.01 1 0.02 1 -1 1 C-0.67 0.67 -0.34 0.34 0 0 Z M-3 2 C-2.34 2.33 -1.68 2.66 -1 3 C-2.98 3.99 -2.98 3.99 -5 5 C-4.34 4.01 -3.68 3.02 -3 2 Z M-5 5 C-6.49097658 8.7952131 -8.75700849 10.61042731 -12 13 C-12.33 12.01 -12.66 11.02 -13 10 C-7.25 5 -7.25 5 -5 5 Z " fill="#E8E8E8" transform="translate(75,15)"/>
<path d="M0 0 C4.95 0 9.9 0 15 0 C15 0.33 15 0.66 15 1 C6.585 2.485 6.585 2.485 -2 4 C-1.34 2.68 -0.68 1.36 0 0 Z " fill="#121314" transform="translate(102,0)"/>
<path d="M0 0 C0.33 0 0.66 0 1 0 C1.06058594 0.86882812 1.12117188 1.73765625 1.18359375 2.6328125 C1.26738281 3.78523438 1.35117187 4.93765625 1.4375 6.125 C1.51871094 7.26195313 1.59992187 8.39890625 1.68359375 9.5703125 C1.97730965 12.7540478 2.43124313 15.85510907 3 19 C2.01 18.67 1.02 18.34 0 18 C-0.90375653 11.67370431 -0.90375653 6.32629569 0 0 Z " fill="#E1E2E3" transform="translate(56,88)"/>
<path d="M0 0 C5.29158974 1.40071493 7.77478044 4.85487245 11 9 C7.25983417 9 6.54723807 8.0658409 3.8125 5.625 C3.09707031 4.99851562 2.38164062 4.37203125 1.64453125 3.7265625 C0 2 0 2 0 0 Z " fill="#151516" transform="translate(193,21)"/>
<path d="M0 0 C0.99 0.33 1.98 0.66 3 1 C4.25 8.625 4.25 8.625 2 12 C1.855625 10.948125 1.71125 9.89625 1.5625 8.8125 C1.12473034 5.84539451 0.62195134 2.93205634 0 0 Z " fill="#171819" transform="translate(28,137)"/>
<path d="M0 0 C0.66 0.33 1.32 0.66 2 1 C2 5.95 2 10.9 2 16 C1.67 16 1.34 16 1 16 C0.67 12.7 0.34 9.4 0 6 C-0.33 6 -0.66 6 -1 6 C-1.042721 4.33388095 -1.04063832 2.66617115 -1 1 C-0.67 0.67 -0.34 0.34 0 0 Z " fill="#E6E6E7" transform="translate(1,78)"/>
<path d="M0 0 C0.66 0.33 1.32 0.66 2 1 C1.67 3.31 1.34 5.62 1 8 C0.01 8.33 -0.98 8.66 -2 9 C-1.125 1.125 -1.125 1.125 0 0 Z " fill="#18181A" transform="translate(73,144)"/>
<path d="M0 0 C4.29 0.33 8.58 0.66 13 1 C13 1.33 13 1.66 13 2 C8.38 2.33 3.76 2.66 -1 3 C-0.67 2.01 -0.34 1.02 0 0 Z " fill="#141415" transform="translate(85,55)"/>
<path d="M0 0 C2 3.75 2 3.75 2 6 C1.34 6 0.68 6 0 6 C-0.33 6.99 -0.66 7.98 -1 9 C-1.66 8.67 -2.32 8.34 -3 8 C-2.25 2.25 -2.25 2.25 0 0 Z " fill="#171719" transform="translate(231,134)"/>
<path d="M0 0 C1.32 0 2.64 0 4 0 C4 0.66 4 1.32 4 2 C5.32 2.33 6.64 2.66 8 3 C7.67 3.66 7.34 4.32 7 5 C4.03 4.01 1.06 3.02 -2 2 C-1.34 1.34 -0.68 0.68 0 0 Z " fill="#E0E1E2" transform="translate(104,54)"/>
</svg>
