<?xml version="1.0" encoding="UTF-8"?>
<svg version="1.1" xmlns="http://www.w3.org/2000/svg" width="1024" height="1024">
<path d="M0 0 C337.92 0 675.84 0 1024 0 C1024 337.92 1024 675.84 1024 1024 C686.08 1024 348.16 1024 0 1024 C0 686.08 0 348.16 0 0 Z " fill="#F2F2EF" transform="translate(0,0)"/>
<path d="M0 0 C5.26931589 4.07972791 10.22090739 8.48719499 15.0625 13.0625 C15.7740625 13.72121094 16.485625 14.37992187 17.21875 15.05859375 C22.70336343 20.30061851 27.65099056 26.23948112 31.0625 33.0625 C31.87332031 33.01609375 32.68414063 32.9696875 33.51953125 32.921875 C44.11100057 32.57663502 51.96514588 34.17652087 60.3125 40.9375 C67.9583947 48.46125581 72.27369708 56.68768241 72.73730469 67.3684082 C72.7754165 74.89329258 72.41556195 81.68161417 68.0625 88.0625 C67.40894531 89.09890625 67.40894531 89.09890625 66.7421875 90.15625 C62.50150122 96.36665395 56.48494093 102.05643488 49.0625 104.0625 C46.25 104.1875 46.25 104.1875 44.0625 104.0625 C44.09601563 105.37089844 44.12953125 106.67929687 44.1640625 108.02734375 C44.15853697 112.7415445 43.50463318 117.04477228 42.4375 121.625 C42.25856201 122.39948486 42.07962402 123.17396973 41.89526367 123.97192383 C37.36543134 142.71599174 28.99707161 158.69565044 16.0625 173.0625 C15.31613281 173.90296875 14.56976562 174.7434375 13.80078125 175.609375 C-1.41076635 191.8015017 -24.57621526 203.79663764 -46.88745117 205.25537109 C-69.56559595 205.84608763 -87.18102217 203.30566088 -106.9375 192.0625 C-107.92105469 191.51851562 -108.90460938 190.97453125 -109.91796875 190.4140625 C-132.38228648 177.12348491 -148.38340734 154.07719024 -154.9375 129.0625 C-159.25946499 111.51539319 -159.25946499 111.51539319 -158.9375 104.0625 C-159.741875 104.18625 -160.54625 104.31 -161.375 104.4375 C-168.50537145 103.68693458 -174.51771035 98.18485012 -179.3671875 93.12109375 C-186.36942443 83.94154434 -187.89039597 73.28839776 -186.9375 62.0625 C-185.36594987 56.10200933 -182.61317592 51.00168952 -178.9375 46.0625 C-178.40125 45.2375 -177.865 44.4125 -177.3125 43.5625 C-172.41107991 38.40311043 -164.6183762 33.4880342 -157.40234375 32.83203125 C-156.56832031 32.84621094 -155.73429688 32.86039062 -154.875 32.875 C-154.03839844 32.88144531 -153.20179688 32.88789063 -152.33984375 32.89453125 C-150.08462275 33.05221337 -148.1045026 33.43692188 -145.9375 34.0625 C-145.49921875 33.34707031 -145.0609375 32.63164062 -144.609375 31.89453125 C-129.20422627 7.69091343 -106.61415379 -9.04925446 -78.49633789 -15.49731445 C-51.26649817 -21.00140162 -22.8064682 -16.03479977 0 0 Z " fill="#0E0D0C" transform="translate(753.9375,331.9375)"/>
<path d="M0 0 C18.48 0 36.96 0 56 0 C57.7325 4.33125 59.465 8.6625 61.25 13.125 C61.84337158 14.60806641 62.43674316 16.09113281 63.0480957 17.61914062 C65.61157552 24.02627389 68.17387575 30.43386456 70.73046875 36.84375 C86.38306811 76.06957561 102.26524985 115.20314302 118.26029968 154.29043579 C119.85457557 158.18800424 121.44491287 162.08657207 123 166 C128.09456824 155.41994057 132.50818117 144.58932069 136.91320801 133.70941162 C139.12172036 128.25540795 141.34068535 122.80565664 143.55859375 117.35546875 C144.01211212 116.24036926 144.46563049 115.12526978 144.93289185 113.97637939 C149.49811422 102.75915001 154.11853165 91.56500615 158.75 80.375 C160.31407046 76.59516306 161.87790527 72.81522879 163.44140625 69.03515625 C163.82120636 68.11693085 164.20100647 67.19870544 164.59231567 66.25265503 C167.22680441 59.8796819 169.84967623 53.50201832 172.46484375 47.12109375 C172.82415985 46.24439026 173.18347595 45.36768677 173.55368042 44.4644165 C175.49575746 39.72442623 177.43589157 34.98364769 179.37310791 30.2416687 C183.51848642 20.13133339 187.75864185 10.0732256 192 0 C208.83 0 225.66 0 243 0 C243 75.24 243 150.48 243 228 C229.47 228 215.94 228 202 228 C202 178.17 202 128.34 202 77 C201.34 77 200.68 77 200 77 C199.64292969 78.15242188 199.28585937 79.30484375 198.91796875 80.4921875 C196.71944268 87.07624168 193.97481236 93.43724571 191.28015137 99.82904053 C189.58696522 103.84648616 187.90540466 107.86879889 186.22265625 111.890625 C185.87250458 112.72685394 185.52235291 113.56308289 185.16159058 114.4246521 C181.48076343 123.22358981 177.86195803 132.0476187 174.25 140.875 C169.86571228 151.58639309 165.47065938 162.2931282 161.046875 172.98828125 C160.62666077 174.00438477 160.20644653 175.02048828 159.77349854 176.06738281 C157.73248254 181.00182355 155.68997388 185.93564012 153.64550781 190.86865234 C152.88841671 192.69748553 152.13157642 194.52642258 151.375 196.35546875 C151.01090027 197.23549561 150.64680054 198.11552246 150.27166748 199.0222168 C147.27275971 206.29227591 144.35037304 213.5919793 141.47412109 220.91142273 C141.16297363 221.69773575 140.85182617 222.48404877 140.53125 223.29418945 C140.12229492 224.33492363 140.12229492 224.33492363 139.70507812 225.39668274 C139 227 139 227 138 228 C135.6243148 228.0883967 133.27791326 228.11530305 130.90234375 228.09765625 C129.83905602 228.09553383 129.83905602 228.09553383 128.75428772 228.09336853 C126.48198288 228.08775443 124.20977525 228.07519963 121.9375 228.0625 C120.40039204 228.05748681 118.86328255 228.05292359 117.32617188 228.04882812 C113.55074358 228.03778042 109.77538829 228.02050641 106 228 C105.62415771 227.06768555 105.24831543 226.13537109 104.86108398 225.17480469 C97.8903762 207.89245905 90.88018888 190.62879952 83.6875 173.4375 C78.02458006 159.89882499 72.42827958 146.33402458 66.875 132.75 C66.52521088 131.89469696 66.17542175 131.03939392 65.81503296 130.15817261 C58.84773334 113.11720341 51.9292109 96.05651914 45 79 C44.67 128.17 44.34 177.34 44 228 C29.48 228 14.96 228 0 228 C0 152.76 0 77.52 0 0 Z " fill="#0D0D0C" transform="translate(305,301)"/>
<path d="M0 0 C4.43696806 2.85862675 8.24674724 6.12089321 11.8125 10 C12.8953125 10.99 12.8953125 10.99 14 12 C17.94718423 11.766833 19.86577313 9.43339874 22.5625 6.75 C32.64038769 -2.64007933 43.08893021 -4.48054951 56.30859375 -4.27734375 C61.62211048 -4.06739351 65.58512671 -3.00886269 70 0 C70.67933594 0.42410156 71.35867188 0.84820312 72.05859375 1.28515625 C80.80714892 7.22226647 86.75229452 15.64449974 89 26 C90.26587491 38.74505876 88.10557888 48.20477756 80.33984375 58.37109375 C76.66811497 62.49642508 72.48082871 65.79547291 68 69 C68.52521106 72.78476837 69.23242339 75.89591252 70.9375 79.3125 C76.39680184 91.22370401 76.46787147 103.71787558 72 116 C66.7770606 129.41578552 56.58176343 138.89565225 43.875 145.1875 C26.38287089 152.86549676 7.79829998 153.14824537 -9.92089844 146.25244141 C-22.92958809 140.75965876 -33.48115531 132.21890715 -39.28515625 119.09375 C-44.43060639 105.37254962 -44.93564789 91.52479769 -39 78 C-38.401875 76.845 -37.80375 75.69 -37.1875 74.5 C-35.81130679 72.15873401 -35.81130679 72.15873401 -36.19921875 70.015625 C-37.214876 67.45914139 -38.34045793 66.74950638 -40.625 65.25 C-48.96411364 59.25299878 -54.42949249 52.06687742 -57 42 C-58.66609375 30.32599046 -57.06909108 19.86158336 -49.9453125 10.21875 C-37.2597003 -4.70549965 -17.80632103 -8.96872134 0 0 Z " fill="#F2F1EF" transform="translate(681,374)"/>
<path d="M0 0 C15.51 0 31.02 0 47 0 C47 75.24 47 150.48 47 228 C31.49 228 15.98 228 0 228 C0 152.76 0 77.52 0 0 Z " fill="#0E0D0C" transform="translate(216,301)"/>
<path d="M0 0 C6.6 0 13.2 0 20 0 C25.188379 10.84842882 29.97559521 21.84402694 34.64746094 32.92285156 C37.53934386 39.74282792 40.58215462 46.42671399 44 53 C45.96072014 48.64690519 47.91871588 44.29258987 49.875 39.9375 C50.16701294 39.28761108 50.45902588 38.63772217 50.7598877 37.96813965 C55.26046785 27.9460573 59.68904651 17.89557204 64.01513672 7.79663086 C64.39686035 6.90983643 64.77858398 6.02304199 65.171875 5.109375 C65.6683252 3.94873535 65.6683252 3.94873535 66.17480469 2.76464844 C67 1 67 1 68 0 C74.27 0 80.54 0 87 0 C87 26.4 87 52.8 87 80 C82.05 80 77.1 80 72 80 C71.67 63.5 71.34 47 71 30 C65.25611787 43.08766771 65.25611787 43.08766771 59.51269531 56.17553711 C58.78452165 57.83447987 58.05633254 59.49341586 57.328125 61.15234375 C56.77584229 62.41117371 56.77584229 62.41117371 56.21240234 63.69543457 C53.82341834 69.13709714 51.41721649 74.57081711 49 80 C45.7 80 42.4 80 39 80 C33.33033299 69.2945418 28.40476233 58.28462117 23.5625 47.1875 C23.24609558 46.46328857 22.92969116 45.73907715 22.60369873 44.99291992 C21.69321701 42.90639193 20.78532434 40.81876491 19.87890625 38.73046875 C19.60318283 38.09666794 19.32745941 37.46286713 19.04338074 36.80986023 C17.92663243 34.22557865 16.89091906 31.67275717 16 29 C15.67 45.83 15.34 62.66 15 80 C10.05 80 5.1 80 0 80 C0 53.6 0 27.2 0 0 Z " fill="#0D0D0C" transform="translate(265,574)"/>
<path d="M0 0 C6.92250119 4.81623629 12.90688748 11.86516962 15.203125 20.07421875 C17.24463596 32.39619562 15.73444548 43.2708163 8.515625 53.52734375 C2.74468858 60.43760668 -5.34808452 64.94183049 -14.35009766 65.93432617 C-26.87312135 66.64225249 -36.39575778 64.9518714 -46.31640625 56.76953125 C-53.52334838 49.52124911 -56.62679882 40.57700508 -56.734375 30.46484375 C-56.54596499 19.85107971 -53.92104135 12.31780537 -46.48828125 4.65234375 C-33.42466661 -7.23674407 -15.3616352 -8.36751321 0 0 Z " fill="#0E0E0D" transform="translate(373.359375,685.28515625)"/>
<path d="M0 0 C4.95 0 9.9 0 15 0 C18.28003863 3.37243409 20.33339578 5.87674491 22.64892578 9.79882812 C24.87126374 13.41946402 27.34385735 16.86260037 29.78540039 20.33764648 C31.78816573 23.18887859 33.7657446 26.05626976 35.7421875 28.92578125 C40.72018487 36.0274197 45.8713485 43.00638432 51 50 C51.33 33.5 51.66 17 52 0 C57.28 0 62.56 0 68 0 C68 26.4 68 52.8 68 80 C54 80 54 80 49.75 75.875 C48.46692276 73.93817728 47.21915429 71.97768356 46 70 C44.85609222 68.3965397 43.71152657 66.79346244 42.55078125 65.20214844 C41.27997201 63.45528685 40.03060615 61.69470579 38.78515625 59.9296875 C35.63459203 55.4746912 32.4441236 51.04882693 29.25 46.625 C28.71930908 45.88830078 28.18861816 45.15160156 27.6418457 44.39257812 C22.2085598 36.3725396 22.2085598 36.3725396 16 29 C16 45.83 16 62.66 16 80 C10.72 80 5.44 80 0 80 C0 53.6 0 27.2 0 0 Z " fill="#0F0E0D" transform="translate(638,574)"/>
<path d="M0 0 C6.56927655 4.82733666 10.05494899 11.267508 13.25390625 18.65625 C13.25390625 18.98625 13.25390625 19.31625 13.25390625 19.65625 C10.31542972 19.764084 7.38089474 19.84346916 4.44140625 19.90625 C3.19133789 19.95652344 3.19133789 19.95652344 1.91601562 20.0078125 C-4.25169092 20.10689212 -4.25169092 20.10689212 -6.8203125 17.765625 C-7.74609375 15.65625 -7.74609375 15.65625 -7.74609375 13.65625 C-8.28234375 13.388125 -8.81859375 13.12 -9.37109375 12.84375 C-11.09473578 11.98192899 -12.7898865 11.06236792 -14.46484375 10.109375 C-20.58180463 7.40043518 -27.77178608 7.65953877 -34.22265625 9.27734375 C-40.48378161 11.99694454 -44.41849749 17.29848077 -46.8828125 23.53125 C-49.35324294 32.47398462 -48.13495429 40.81165575 -44.2265625 49.12109375 C-41.10847602 54.46050832 -36.77213193 57.22682109 -30.94140625 59.14453125 C-23.66468926 60.8407055 -17.58869254 60.00829508 -11.01953125 56.43359375 C-6.94171291 53.24560862 -5.06383266 49.2307347 -2.74609375 44.65625 C-10.00609375 44.65625 -17.26609375 44.65625 -24.74609375 44.65625 C-24.74609375 40.03625 -24.74609375 35.41625 -24.74609375 30.65625 C-11.54609375 30.65625 1.65390625 30.65625 15.25390625 30.65625 C15.25390625 43.86345359 13.76041163 53.96665913 4.33203125 63.625 C-5.29965161 72.43537657 -14.77805512 75.20544211 -27.80078125 74.90234375 C-39.3422726 74.18242894 -48.28699713 68.88419053 -56.1796875 60.5703125 C-64.77390525 50.06864991 -65.95140641 37.71431762 -64.74609375 24.65625 C-62.73029191 13.98577797 -57.00872846 5.72561598 -48.63671875 -1.0625 C-33.84332494 -11.08777515 -14.56595507 -9.30032812 0 0 Z " fill="#0E0D0C" transform="translate(543.74609375,580.34375)"/>
<path d="M0 0 C6.27 0 12.54 0 19 0 C24.26982534 13.10913662 29.45449201 26.24595834 34.53710938 39.42871094 C35.62999619 42.2629569 36.7250229 45.09636934 37.8203125 47.9296875 C41.94049808 58.59786396 46.00383372 69.28472765 50 80 C44.06 80 38.12 80 32 80 C30.02 74.72 28.04 69.44 26 64 C15.44 63.67 4.88 63.34 -6 63 C-6.99 66.3 -7.98 69.6 -9 73 C-9.99 75.31 -10.98 77.62 -12 80 C-17.61 80 -23.22 80 -29 80 C-28.33483052 76.67415258 -27.74778755 74.03475806 -26.59228516 70.9453125 C-26.30716568 70.17743408 -26.0220462 69.40955566 -25.72828674 68.6184082 C-25.41834274 67.7955835 -25.10839874 66.97275879 -24.7890625 66.125 C-24.4647374 65.25512451 -24.14041229 64.38524902 -23.80625916 63.48901367 C-22.74955292 60.65793863 -21.68737667 57.82895151 -20.625 55 C-19.89809291 53.05608799 -19.17145031 51.11207705 -18.44506836 49.16796875 C-12.97163341 34.53249456 -7.44819871 19.91594325 -1.86938477 5.3203125 C-1.20985609 3.56008771 -0.59442152 1.78326455 0 0 Z " fill="#0E0D0C" transform="translate(410,574)"/>
<path d="M0 0 C4.95 0 9.9 0 15 0 C15.99 1.85882812 16.98 3.71765625 18 5.6328125 C27.74650384 23.95679078 27.74650384 23.95679078 38 42 C38.27561768 41.43829102 38.55123535 40.87658203 38.83520508 40.29785156 C45.54386012 26.66203654 52.5674543 13.2549461 60 0 C64.95 0 69.9 0 75 0 C75 22.77 75 45.54 75 69 C70.71 69 66.42 69 62 69 C61.505 48.21 61.505 48.21 61 27 C59.02 30.96 57.04 34.92 55 39 C52.96446764 42.68700201 50.91367673 46.35156892 48.8125 50 C48.29236328 50.91394531 47.77222656 51.82789063 47.23632812 52.76953125 C44.36147975 57.78491169 44.36147975 57.78491169 43 60 C42.55229248 60.75410156 42.10458496 61.50820313 41.64331055 62.28515625 C40 64 40 64 37.4909668 64.48071289 C35 64 35 64 33.45629883 62.48608398 C33.02341553 61.76751221 32.59053223 61.04894043 32.14453125 60.30859375 C31.64131348 59.48601074 31.1380957 58.66342773 30.61962891 57.81591797 C30.08515137 56.88666504 29.55067383 55.95741211 29 55 C28.41524902 53.99211426 27.83049805 52.98422852 27.22802734 51.94580078 C25.35420389 48.66574016 23.51615933 45.36793152 21.6875 42.0625 C21.05521484 40.92748047 20.42292969 39.79246094 19.77148438 38.62304688 C15.23028274 30.46056548 15.23028274 30.46056548 14 28 C13.67 41.53 13.34 55.06 13 69 C8.71 69 4.42 69 0 69 C0 46.23 0 23.46 0 0 Z " fill="#0D0D0C" transform="translate(216,681)"/>
<path d="M0 0 C17.16 0 34.32 0 52 0 C52 4.95 52 9.9 52 15 C40.12 15 28.24 15 16 15 C16 20.94 16 26.88 16 33 C26.56 33 37.12 33 48 33 C48 37.62 48 42.24 48 47 C37.44 47 26.88 47 16 47 C16 52.94 16 58.88 16 65 C27.88 65 39.76 65 52 65 C52 69.95 52 74.9 52 80 C34.84 80 17.68 80 0 80 C0 53.6 0 27.2 0 0 Z " fill="#0E0E0C" transform="translate(739,574)"/>
<path d="M0 0 C13 0 13 0 17 3.8125 C17.97181506 5.25692406 18.93916267 6.70521846 19.85693359 8.18457031 C21.69674022 11.10656991 23.68351376 13.9262349 25.64648438 16.76635742 C26.71235591 18.31533866 27.77043693 19.86972802 28.81835938 21.4309082 C33.99767343 29.14013056 39.48734182 36.48273884 45 44 C45.33 29.48 45.66 14.96 46 0 C50.62 0 55.24 0 60 0 C60 22.77 60 45.54 60 69 C47 69 47 69 43.01953125 65.5546875 C41.90709293 64.02545917 40.83917336 62.46308063 39.8125 60.875 C39.2335498 60.05765381 38.65459961 59.24030762 38.05810547 58.39819336 C36.8881045 56.73866916 35.73605987 55.06632841 34.60302734 53.38134766 C32.74977347 50.6282806 30.81102579 47.94687078 28.8581543 45.26416016 C27.71603215 43.68811752 26.59532435 42.0966163 25.4765625 40.50390625 C22.03425098 35.63363269 18.50784502 30.8232869 15 26 C14.67 40.19 14.34 54.38 14 69 C9.38 69 4.76 69 0 69 C0 46.23 0 23.46 0 0 Z " fill="#100F0E" transform="translate(415,681)"/>
<path d="M0 0 C4.62 0 9.24 0 14 0 C14.33 9.57 14.66 19.14 15 29 C20.83438376 22.67256973 26.48975801 16.30819879 31.89453125 9.60546875 C32.58933594 8.74566406 33.28414062 7.88585937 34 7 C34.71929688 5.92105469 35.43859375 4.84210937 36.1796875 3.73046875 C40.08648247 -0.05187153 43.06110142 0.108421 48.3125 0.125 C49.14845703 0.104375 49.98441406 0.08375 50.84570312 0.0625 C52.8967055 0.01561995 54.94846635 0.00426071 57 0 C55.71076019 2.78823237 54.31380469 4.98996602 52.27734375 7.28515625 C51.74262451 7.89351318 51.20790527 8.50187012 50.65698242 9.12866211 C49.80583862 10.08591187 49.80583862 10.08591187 48.9375 11.0625 C43.48368179 17.26841182 38.17971337 23.56216504 33 30 C34.63900881 35.17312157 37.8118906 39.1313874 41 43.4375 C42.17075872 45.04022888 43.34132928 46.64309521 44.51171875 48.24609375 C45.67447232 49.83073419 46.83723252 51.41536977 48 53 C49.94558487 55.66089981 51.88216631 58.328023 53.8125 61 C54.23853516 61.58064209 54.66457031 62.16128418 55.10351562 62.75952148 C58 66.77251083 58 66.77251083 58 69 C43.21445144 70.66337421 43.21445144 70.66337421 38.44140625 67.078125 C36.36219523 64.1559906 34.69512928 61.16089646 33 58 C31.21728998 55.23622397 29.3536309 52.52902246 27.5 49.8125 C25.99315491 47.54611582 24.49690834 45.27296943 23 43 C19.5573898 44.47540437 17.19330262 45.92937634 15 49 C14.36655735 52.40967932 14.30332832 55.78850698 14.25 59.25 C14.22035156 60.18585937 14.19070313 61.12171875 14.16015625 62.0859375 C14.08961871 64.39016382 14.04252608 66.69508655 14 69 C9.05 69 4.1 69 -1 69 C-1.02255318 60.15117276 -1.04091634 51.30236448 -1.05181217 42.45351505 C-1.05704046 38.34505715 -1.06413713 34.23661986 -1.07543945 30.12817383 C-1.08627025 26.16653172 -1.09227724 22.20490948 -1.09487724 18.24325371 C-1.09673114 16.72851689 -1.1003511 15.21378121 -1.10573006 13.69905281 C-1.11294307 11.58458187 -1.11399083 9.47019406 -1.11352539 7.35571289 C-1.115746 6.14992081 -1.11796661 4.94412872 -1.12025452 3.70179749 C-1 1 -1 1 0 0 Z " fill="#121110" transform="translate(505,681)"/>
<path d="M0 0 C5.82433242 4.6134525 7.89095163 9.39098738 9.00390625 16.67578125 C-3.6266743 17.75254251 -3.6266743 17.75254251 -6.93359375 15.15234375 C-8.18359375 13.23828125 -8.18359375 13.23828125 -9.99609375 9.67578125 C-15.0602458 7.98773057 -19.98523181 8.01917327 -25.05859375 9.67578125 C-27.34227787 12.0331326 -27.28615923 12.69440517 -27.30859375 15.86328125 C-27.20546875 17.12140625 -27.10234375 18.37953125 -26.99609375 19.67578125 C-22.64458648 21.17902921 -18.30300823 22.60719092 -13.859375 23.8125 C-13.12195068 24.01657471 -12.38452637 24.22064941 -11.62475586 24.4309082 C-10.15345528 24.83559157 -8.67904676 25.22918562 -7.20141602 25.61010742 C-0.64236468 27.43328342 4.13315016 30.37331221 8.44140625 35.67578125 C11.10603597 40.97028465 10.80493042 46.94101526 10.00390625 52.67578125 C8.0069308 58.42743867 4.31256033 61.64441561 -0.8359375 64.66796875 C-9.90483961 68.89902977 -20.16480026 69.10563686 -29.63671875 65.85546875 C-34.79565416 63.27600104 -39.54484164 59.44223059 -42.24609375 54.29296875 C-42.99609375 51.67578125 -42.99609375 51.67578125 -42.99609375 45.67578125 C-38.37609375 45.67578125 -33.75609375 45.67578125 -28.99609375 45.67578125 C-28.00609375 47.65578125 -27.01609375 49.63578125 -25.99609375 51.67578125 C-21.66697 54.85169233 -16.10885498 54.14539784 -10.99609375 53.67578125 C-7.82820591 52.86394192 -7.82820591 52.86394192 -5.99609375 50.67578125 C-5.10017292 47.07658702 -5.10017292 47.07658702 -4.99609375 43.67578125 C-10.01607919 39.84473973 -14.93776047 38.29727633 -20.99609375 36.67578125 C-30.02600401 34.25895233 -36.37876079 31.37955216 -41.99609375 23.67578125 C-43.72543272 18.34637185 -43.69605634 12.77566901 -41.93359375 7.48828125 C-32.71400659 -5.89499044 -13.61001873 -9.02895568 0 0 Z " fill="#0D0C0B" transform="translate(780.99609375,684.32421875)"/>
<path d="M0 0 C14.85 0 29.7 0 45 0 C45 3.96 45 7.92 45 12 C34.77 12 24.54 12 14 12 C14 17.28 14 22.56 14 28 C23.24 28 32.48 28 42 28 C42 31.96 42 35.92 42 40 C32.76 40 23.52 40 14 40 C14 45.28 14 50.56 14 56 C24.56 56 35.12 56 46 56 C46 59.96 46 63.92 46 68 C30.82 68 15.64 68 0 68 C0 45.56 0 23.12 0 0 Z " fill="#0C0C0B" transform="translate(588,682)"/>
<path d="M0 0 C5.23361148 2.80585254 9.7227867 6.47753383 12.0546875 12.0390625 C14.24541817 19.43633489 13.34394949 26.21389735 10.0546875 33.1015625 C7.31400118 37.3953044 4.09435317 40.91634297 -0.83203125 42.6640625 C-7.89504555 44.12627618 -14.94311838 44.07946009 -21.26171875 40.375 C-26.03191671 36.76691523 -29.3785116 32.08325456 -30.5 26.18359375 C-31.21601184 18.8750339 -31.28099244 13.25102258 -26.9453125 7.1015625 C-19.7139217 -1.0225926 -10.27307218 -4.27711565 0 0 Z " fill="#F1F1EF" transform="translate(361.9453125,694.8984375)"/>
<path d="M0 0 C5.28 0 10.56 0 16 0 C18.12621076 3.74931813 20.25101602 7.4994207 22.375 11.25 C22.97828125 12.31347656 23.5815625 13.37695312 24.203125 14.47265625 C24.78320312 15.49746094 25.36328125 16.52226563 25.9609375 17.578125 C26.49509277 18.52075195 27.02924805 19.46337891 27.57958984 20.43457031 C28.45833103 22.02168141 29.29620492 23.63315329 30.06494141 25.27636719 C30.88539136 27.18142029 30.88539136 27.18142029 33 28 C33.27255615 27.28360352 33.5451123 26.56720703 33.82592773 25.82910156 C34.99323749 23.01629528 36.32520378 20.40591131 37.78515625 17.734375 C38.31560547 16.76242187 38.84605469 15.79046875 39.39257812 14.7890625 C39.94365234 13.78617188 40.49472656 12.78328125 41.0625 11.75 C41.61744141 10.73164062 42.17238281 9.71328125 42.74414062 8.6640625 C46.86510493 1.13489507 46.86510493 1.13489507 48 0 C50.53049402 -0.07313567 53.03304837 -0.09247527 55.5625 -0.0625 C56.62887695 -0.05573242 56.62887695 -0.05573242 57.71679688 -0.04882812 C59.47790013 -0.03700864 61.23896036 -0.01907263 63 0 C61.51132844 4.01591869 59.60866846 7.61812482 57.48046875 11.33203125 C56.96979607 12.22519295 56.96979607 12.22519295 56.44880676 13.13639832 C55.73001768 14.39202237 55.00966615 15.64675315 54.2878418 16.90063477 C53.19797472 18.79429997 52.11322955 20.69082363 51.02929688 22.58789062 C50.67850571 23.19937958 50.32771454 23.81086853 49.96629333 24.44088745 C49.26924315 25.65678615 48.5747784 26.87417081 47.88294983 28.0930481 C46.09438115 31.21767729 44.18359715 34.12545091 42.0390625 37.01171875 C38.62362373 42.38889702 39.21677168 48.83993659 39.1875 55 C39.16236328 56.25167969 39.13722656 57.50335937 39.11132812 58.79296875 C39.05276561 61.86164476 39.02344486 64.93085478 39 68 C34.38 68 29.76 68 25 68 C25.06703125 66.28296875 25.1340625 64.5659375 25.203125 62.796875 C25.45837095 46.65810469 23.15229323 36.50908834 13.72998047 23.47070312 C10.65116009 19.07362971 7.97888472 14.43153202 5.25 9.8125 C4.72494873 8.94375244 4.19989746 8.07500488 3.65893555 7.17993164 C3.17851807 6.38449951 2.69810059 5.58906738 2.203125 4.76953125 C1.77676758 4.06417236 1.35041016 3.35881348 0.91113281 2.63208008 C0 1 0 1 0 0 Z " fill="#0D0C0B" transform="translate(655,682)"/>
<path d="M0 0 C5.28 0 10.56 0 16 0 C16 26.4 16 52.8 16 80 C10.72 80 5.44 80 0 80 C0 53.6 0 27.2 0 0 Z " fill="#0E0D0C" transform="translate(588,574)"/>
<path d="M0 0 C5.28 0 10.56 0 16 0 C16 26.4 16 52.8 16 80 C10.72 80 5.44 80 0 80 C0 53.6 0 27.2 0 0 Z " fill="#0E0D0C" transform="translate(217,574)"/>
<path d="M0 0 C19.14 0 38.28 0 58 0 C58 0.33 58 0.66 58 1 C39.52 1 21.04 1 2 1 C2 76.24 2 151.48 2 229 C16.52 229 31.04 229 46 229 C46 181.15 46 133.3 46 84 C46.33 84 46.66 84 47 84 C49.15957093 116.20589016 49.11005164 148.35821142 48.78275681 180.61782837 C48.74990282 183.94734805 48.72090377 187.27688363 48.69265747 190.60644531 C48.64635395 195.9135874 48.58841643 201.22047798 48.52088356 206.52739143 C48.49664615 208.51900821 48.47549033 210.51066499 48.45749474 212.50234795 C48.43143969 215.24780358 48.39281506 217.99278926 48.35058594 220.73803711 C48.34528901 221.55162941 48.33999208 222.36522171 48.33453465 223.20346832 C48.22869522 228.77130478 48.22869522 228.77130478 46 231 C44.10253906 231.24723816 44.10253906 231.24723816 41.765625 231.24291992 C40.45416504 231.24753487 40.45416504 231.24753487 39.11621094 231.25224304 C38.17036133 231.24505753 37.22451172 231.23787201 36.25 231.23046875 C35.28094727 231.23001053 34.31189453 231.22955231 33.31347656 231.2290802 C31.26235735 231.22605596 29.21124048 231.21816454 27.16015625 231.20581055 C24.01293845 231.18757497 20.86601506 231.18530069 17.71875 231.18554688 C15.72916411 231.18063098 13.73958023 231.17480235 11.75 231.16796875 C10.33122559 231.16629951 10.33122559 231.16629951 8.88378906 231.16459656 C8.00948242 231.15821671 7.13517578 231.15183685 6.234375 231.14526367 C5.46319336 231.14145187 4.69201172 231.13764008 3.89746094 231.13371277 C2 231 2 231 0 230 C0 154.1 0 78.2 0 0 Z " fill="#FCFCFB" transform="translate(303,300)"/>
<path d="M0 0 C3.29028986 0.34527733 5.1406375 1.72457833 7.625 3.8125 C19.90865418 13.36390213 35.16686726 12.96148135 50 12 C58.00182685 10.63202548 64.09823653 7.00350488 70.625 2.29296875 C73 1 73 1 75.25 1.23828125 C77 2 77 2 78 3 C78.06773901 6.45468965 77.92537289 8.97592067 75.53515625 11.62109375 C62.07686845 22.21708721 44.78113147 25.89880437 28 24 C17.40562356 22.0469253 6.32742351 17.90168524 -1.1875 9.9375 C-3 7 -3 7 -2.9375 4.25 C-2 2 -2 2 0 0 Z " fill="#0F0E0D" transform="translate(659,478)"/>
<path d="M0 0 C15.51 0 31.02 0 47 0 C47 35.64 47 71.28 47 108 C46.67 108 46.34 108 46 108 C44.66435671 97.50277667 44.85454098 86.97371451 44.8671875 76.4140625 C44.86651283 74.4239399 44.86554144 72.43381739 44.86428833 70.44369507 C44.8628211 66.29334725 44.86493581 62.14302107 44.86962891 57.99267578 C44.87534803 52.67655036 44.87202726 47.36047519 44.86605644 42.04435158 C44.86244352 37.94371156 44.86359241 33.84308347 44.86618423 29.74244308 C44.86685032 27.78165048 44.86603622 25.82085679 44.86370468 23.86006546 C44.86116373 21.12494274 44.86503816 18.38990179 44.87060547 15.65478516 C44.86858124 14.84847656 44.86655701 14.04216797 44.86447144 13.21142578 C44.87936247 9.26003624 45.21765905 5.91170475 46 2 C31.48 2 16.96 2 2 2 C2 76.25 2 150.5 2 227 C16.52 227 31.04 227 46 227 C46.33 225.68 46.66 224.36 47 223 C47 224.65 47 226.3 47 228 C31.49 228 15.98 228 0 228 C0 152.76 0 77.52 0 0 Z " fill="#171716" transform="translate(216,301)"/>
<path d="M0 0 C16.83 0 33.66 0 51 0 C51 75.24 51 150.48 51 228 C37.47 228 23.94 228 10 228 C10 178.17 10 128.34 10 77 C10.33 77 10.66 77 11 77 C11 126.5 11 176 11 227 C23.54 227 36.08 227 49 227 C49 152.75 49 78.5 49 2 C32.83 2 16.66 2 0 2 C0 1.34 0 0.68 0 0 Z " fill="#1E1E1E" transform="translate(497,301)"/>
<path d="M0 0 C17.16 0 34.32 0 52 0 C52 4.95 52 9.9 52 15 C40.12 15 28.24 15 16 15 C16 20.94 16 26.88 16 33 C26.56 33 37.12 33 48 33 C48 37.62 48 42.24 48 47 C37.44 47 26.88 47 16 47 C16 52.94 16 58.88 16 65 C27.88 65 39.76 65 52 65 C52 69.95 52 74.9 52 80 C34.84 80 17.68 80 0 80 C0 53.6 0 27.2 0 0 Z M1 2 C1 27.08 1 52.16 1 78 C17.17 78 33.34 78 50 78 C50 74.37 50 70.74 50 67 C38.12 66.67 26.24 66.34 14 66 C14 59.4 14 52.8 14 46 C24.56 45.67 35.12 45.34 46 45 C46 41.7 46 38.4 46 35 C44.64467163 34.96241577 44.64467163 34.96241577 43.26196289 34.92407227 C39.9203572 34.82912683 36.57893748 34.72988379 33.23754883 34.62768555 C31.7893576 34.5842837 30.34111346 34.54261256 28.89282227 34.50268555 C26.81510441 34.44510938 24.73765427 34.38137972 22.66015625 34.31640625 C21.40855713 34.27974854 20.15695801 34.24309082 18.86743164 34.20532227 C16 34 16 34 15 33 C14.84379445 31.58672053 14.74943827 30.1664541 14.68359375 28.74609375 C14.64548584 27.9770874 14.60737793 27.20808105 14.56811523 26.41577148 C14.52501221 25.43294189 14.48190918 24.4501123 14.4375 23.4375 C14.293125 20.323125 14.14875 17.20875 14 14 C25.88 13.67 37.76 13.34 50 13 C50 9.37 50 5.74 50 2 C33.83 2 17.66 2 1 2 Z " fill="#040403" transform="translate(739,574)"/>
<path d="M0 0 C3.05774024 2.4944723 4.81888212 4.41651221 5.2734375 8.390625 C5.5818845 17.0745945 5.5818845 17.0745945 3 20.6875 C-0.31044889 23.23930436 -1.9718682 23.92252539 -6.06640625 23.57421875 C-8.80134832 22.76202383 -10.47248644 21.22928215 -12.08984375 18.91015625 C-14.40207699 14.05744356 -14.58191313 9.65385836 -12.8125 4.625 C-9.02661408 -0.8580072 -6.60349322 -1.76879283 0 0 Z " fill="#0D0D0C" transform="translate(734,404)"/>
<path d="M0 0 C3.20492037 2.7063772 5.76801017 4.88546978 6.23828125 9.171875 C6.4108458 15.16622263 5.98075605 18.43383865 2 23 C-0.85324437 24.42662219 -2.83454549 24.31033868 -6 24 C-9.37940996 21.84946639 -11.81543238 19.87676675 -13 16 C-13.42543885 10.63947052 -13.47662684 7.34578355 -10 3 C-6.83916213 -0.16083787 -4.41090304 -0.72014743 0 0 Z " fill="#0D0D0C" transform="translate(666,403)"/>
<path d="M0 0 C3.14581423 -0.02888514 6.29159469 -0.04675923 9.4375 -0.0625 C10.33533203 -0.07087891 11.23316406 -0.07925781 12.15820312 -0.08789062 C13.01220703 -0.09111328 13.86621094 -0.09433594 14.74609375 -0.09765625 C15.93223267 -0.10551147 15.93223267 -0.10551147 17.14233398 -0.11352539 C19 0 19 0 20 1 C20.10033866 3.48953697 20.13617943 5.95134953 20.12939453 8.44140625 C20.13114685 9.22023163 20.13289917 9.99905701 20.13470459 10.80148315 C20.13912349 13.38851111 20.13618499 15.97547129 20.1328125 18.5625 C20.13348553 20.35229506 20.13445554 22.14209002 20.13571167 23.93188477 C20.13718869 27.68799711 20.13503394 31.44408572 20.13037109 35.20019531 C20.1246738 40.02600493 20.12795278 44.85175895 20.13394356 49.67756653 C20.13754905 53.37488223 20.13641064 57.07218464 20.13381577 60.76950073 C20.13314646 62.54938768 20.13397503 64.32927582 20.13629532 66.10916138 C20.13882165 68.59233822 20.13498154 71.07542374 20.12939453 73.55859375 C20.13141876 74.30148651 20.13344299 75.04437927 20.13552856 75.80978394 C20.11426262 80.88573738 20.11426262 80.88573738 19 82 C16.13732433 82.07325168 13.299281 82.09238205 10.4375 82.0625 C9.63119141 82.05798828 8.82488281 82.05347656 7.99414062 82.04882812 C5.99606244 82.03700518 3.99802217 82.01906914 2 82 C2 81.67 2 81.34 2 81 C6.95 81 11.9 81 17 81 C17 54.6 17 28.2 17 1 C11.72 1 6.44 1 1 1 C1 18.16 1 35.32 1 53 C0.01 52.01 -0.98 51.02 -2 50 C-1.67 49.34 -1.34 48.68 -1 48 C-0.88177029 46.45857825 -0.82300189 44.91238903 -0.79467773 43.36669922 C-0.7647599 41.92543167 -0.7647599 41.92543167 -0.73423767 40.45504761 C-0.71752518 39.41542877 -0.70081268 38.37580994 -0.68359375 37.3046875 C-0.6524221 35.71081711 -0.6524221 35.71081711 -0.62062073 34.08474731 C-0.55509739 30.68156562 -0.49622727 27.27830511 -0.4375 23.875 C-0.39431743 21.57160634 -0.35070323 19.26822074 -0.30664062 16.96484375 C-0.19941318 11.30997979 -0.09765198 5.65503697 0 0 Z " fill="#EAEAE9" transform="translate(689,573)"/>
<path d="M0 0 C2.99845324 1.49922662 3.20968597 3.65498215 4.3828125 6.75 C4.82753906 7.9153125 5.27226562 9.080625 5.73046875 10.28125 C6.19066406 11.5084375 6.65085937 12.735625 7.125 14 C7.59292969 15.2271875 8.06085938 16.454375 8.54296875 17.71875 C12 26.82999271 12 26.82999271 12 28 C4.41 28 -3.18 28 -11 28 C-9.3553782 23.70786544 -7.70936113 19.41627525 -6.0625 15.125 C-5.59392578 13.90167969 -5.12535156 12.67835938 -4.64257812 11.41796875 C-4.19462891 10.25136719 -3.74667969 9.08476563 -3.28515625 7.8828125 C-2.87144775 6.80402832 -2.45773926 5.72524414 -2.03149414 4.61376953 C-1 2 -1 2 0 0 Z " fill="#F2F1EF" transform="translate(419,595)"/>
<path d="M0 0 C5.28 0 10.56 0 16 0 C16 26.4 16 52.8 16 80 C10.72 80 5.44 80 0 80 C0 53.6 0 27.2 0 0 Z M2 2 C2 27.08 2 52.16 2 78 C6.29 78 10.58 78 15 78 C15 52.92 15 27.84 15 2 C10.71 2 6.42 2 2 2 Z " fill="#000000" transform="translate(217,574)"/>
<path d="M0 0 C2 2 2 2 2.20254517 5.12576294 C2.19055427 6.48517856 2.16721162 7.84452045 2.13525391 9.20361328 C2.12579239 9.9451767 2.11633087 10.68674011 2.10658264 11.45077515 C2.07284256 13.9075351 2.02474514 16.3637968 1.9765625 18.8203125 C1.95040177 20.52137949 1.92513425 22.22246043 1.90072632 23.92355347 C1.83401255 28.40522896 1.75513356 32.88661177 1.67376709 37.36804199 C1.59290809 41.93925729 1.52349002 46.51064451 1.453125 51.08203125 C1.3133156 60.05489362 1.160661 69.02748847 1 78 C5.29 78 9.58 78 14 78 C14 52.92 14 27.84 14 2 C10.37 2 6.74 2 3 2 C3 1.67 3 1.34 3 1 C9.435 0.505 9.435 0.505 16 0 C16 26.4 16 52.8 16 80 C10.72 80 5.44 80 0 80 C0 53.6 0 27.2 0 0 Z " fill="#000000" transform="translate(588,574)"/>
<path d="M0 0 C0.33 0 0.66 0 1 0 C1 26.73 1 53.46 1 81 C-5.27 81 -11.54 81 -18 81 C-18.06058594 77.93074219 -18.12117188 74.86148438 -18.18359375 71.69921875 C-18.24538093 68.730525 -18.30876956 65.76186947 -18.37231445 62.79321289 C-18.41565803 60.72814324 -18.45733352 58.66303788 -18.49731445 56.59790039 C-18.55503083 53.63156365 -18.61872151 50.66540655 -18.68359375 47.69921875 C-18.70030624 46.7741301 -18.71701874 45.84904144 -18.73423767 44.8959198 C-18.75418289 44.03525406 -18.77412811 43.17458832 -18.79467773 42.2878418 C-18.81022202 41.53061325 -18.8257663 40.7733847 -18.84178162 39.99320984 C-18.93632323 37.79075185 -18.93632323 37.79075185 -20 35 C-19.07796291 32.63477442 -18.08301035 30.29598193 -17 28 C-16.67 28 -16.34 28 -16 28 C-16 45.16 -16 62.32 -16 80 C-10.72 80 -5.44 80 0 80 C0 53.6 0 27.2 0 0 Z " fill="#FCFCFB" transform="translate(353,574)"/>
<path d="M0 0 C6.6 0 13.2 0 20 0 C20.66 1.32 21.32 2.64 22 4 C21.67 4.99 21.34 5.98 21 7 C20.34 5.68 19.68 4.36 19 3 C13.39 2.67 7.78 2.34 2 2 C2 26.09 2 50.18 2 75 C1.67 75 1.34 75 1 75 C-0.26740234 67.21139598 -0.12674304 59.4289202 -0.09765625 51.5625 C-0.09578823 50.07177783 -0.09436614 48.58105504 -0.09336853 47.09033203 C-0.08957356 43.19088 -0.0797695 39.29146596 -0.06866455 35.39202881 C-0.05838507 31.40328485 -0.05385698 27.41453467 -0.04882812 23.42578125 C-0.03814415 15.61716828 -0.02057225 7.80859433 0 0 Z " fill="#030303" transform="translate(265,574)"/>
<path d="M0 0 C1.875 1.125 1.875 1.125 3 3 C2.92489508 6.52993137 2.39859994 8.45377045 0.3125 11.3125 C-2.58350659 13.42580211 -4.41315776 14 -8 14 C-10.375 12.0625 -10.375 12.0625 -12 10 C-10.42844799 3.71379195 -7.14760876 -1.31666477 0 0 Z " fill="#0E0D0C" transform="translate(713,442)"/>
<path d="M0 0 C1.98 0 3.96 0 6 0 C6 0.33 6 0.66 6 1 C4.35 1 2.7 1 1 1 C1 22.12 1 43.24 1 65 C14.53 65 28.06 65 42 65 C42 62.03 42 59.06 42 56 C42.99 55.67 43.98 55.34 45 55 C45 58.96 45 62.92 45 67 C30.15 66.67 15.3 66.34 0 66 C0 44.22 0 22.44 0 0 Z " fill="#161514" transform="translate(589,683)"/>
<path d="M0 0 C3.78380671 0.14014099 6.26539617 0.51026412 9.4375 2.625 C11.5520177 5.83906691 11.28959898 8.23521325 11 12 C9.4375 13.1875 9.4375 13.1875 7 14 C3.39037979 12.86011993 0.77244555 11.72416771 -2 9.125 C-3.31975167 6.32052769 -2.99066528 4.89579082 -2 2 C-1.34 1.34 -0.68 0.68 0 0 Z " fill="#0F0E0D" transform="translate(680,442)"/>
<path d="M0 0 C2.94695474 2.94695474 4.38513421 5.2050654 6 9 C5.67 9.66 5.34 10.32 5 11 C4.34 10.01 3.68 9.02 3 8 C2.97494385 9.05501709 2.9498877 10.11003418 2.92407227 11.19702148 C2.83015891 15.09770628 2.72989966 18.99820625 2.62768555 22.89868164 C2.58427561 24.58939299 2.54260511 26.28014991 2.50268555 27.97094727 C2.44512906 30.39613606 2.38139351 32.82109415 2.31640625 35.24609375 C2.29133751 36.38672523 2.29133751 36.38672523 2.26576233 37.55039978 C2.11387171 42.88612829 2.11387171 42.88612829 1 44 C-1.35313555 44.07271741 -3.70833668 44.08370868 -6.0625 44.0625 C-7.35285156 44.05347656 -8.64320313 44.04445313 -9.97265625 44.03515625 C-10.97167969 44.02355469 -11.97070312 44.01195312 -13 44 C-13.33 43.34 -13.66 42.68 -14 42 C-9.38 42 -4.76 42 0 42 C0 28.14 0 14.28 0 0 Z " fill="#F9F9F8" transform="translate(229,708)"/>
<path d="M0 0 C2.9512645 1.47563225 3.06923915 3.50079352 4.125 6.5625 C4.47820312 7.57441406 4.83140625 8.58632813 5.1953125 9.62890625 C5.46085937 10.41136719 5.72640625 11.19382812 6 12 C5.01 11.67 4.02 11.34 3 11 C2.98018066 12.17095215 2.96036133 13.3419043 2.93994141 14.54833984 C2.86399919 18.88336074 2.7752648 23.21804095 2.68261719 27.55273438 C2.64428023 29.43059576 2.60943573 31.30853176 2.578125 33.18652344 C2.53257637 35.88243321 2.47456625 38.57782712 2.4140625 41.2734375 C2.40251129 42.11619232 2.39096008 42.95894714 2.37905884 43.82723999 C2.22774341 49.77225659 2.22774341 49.77225659 0 52 C0 34.84 0 17.68 0 0 Z " fill="#CAC9C8" transform="translate(280,602)"/>
<path d="M0 0 C0.33 0 0.66 0 1 0 C1 14.19 1 28.38 1 43 C0.01 43 -0.98 43 -2 43 C-2.02505615 41.9805127 -2.0501123 40.96102539 -2.07592773 39.91064453 C-2.16997004 36.13479646 -2.27019837 32.35913373 -2.37231445 28.58349609 C-2.41567538 26.94812347 -2.45734961 25.31270523 -2.49731445 23.67724609 C-2.55498912 21.32896159 -2.61869129 18.98090696 -2.68359375 16.6328125 C-2.70030624 15.89942657 -2.71701874 15.16604065 -2.73423767 14.41043091 C-2.78637962 10.57797692 -2.78637962 10.57797692 -4 7 C-3.22265625 5.2734375 -3.22265625 5.2734375 -2.0625 3.375 C-1.381875 2.26125 -0.70125 1.1475 0 0 Z " fill="#DCDCDA" transform="translate(277,707)"/>
<path d="M0 0 C0.33 0 0.66 0 1 0 C1 3.63 1 7.26 1 11 C-8.24 11 -17.48 11 -27 11 C-27 16.28 -27 21.56 -27 27 C-27.33 27 -27.66 27 -28 27 C-28.33 21.39 -28.66 15.78 -29 10 C-26.28598706 8.64299353 -24.15153684 8.8876139 -21.1171875 8.90234375 C-19.95058594 8.90556641 -18.78398438 8.90878906 -17.58203125 8.91210938 C-16.35871094 8.92048828 -15.13539063 8.92886719 -13.875 8.9375 C-12.64394531 8.94201172 -11.41289063 8.94652344 -10.14453125 8.95117188 C-7.09630608 8.9629867 -4.04817686 8.97945972 -1 9 C-0.67 6.03 -0.34 3.06 0 0 Z " fill="#151515" transform="translate(629,711)"/>
<path d="M0 0 C0.33 0 0.66 0 1 0 C1 17.16 1 34.32 1 52 C-3.95 52 -8.9 52 -14 52 C-13.34 50.68 -12.68 49.36 -12 48 C-12 48.66 -12 49.32 -12 50 C-8.04 50 -4.08 50 0 50 C0 33.5 0 17 0 0 Z " fill="#000000" transform="translate(279,602)"/>
<path d="M0 0 C4.24802077 2.12401038 6.09065494 4.39152208 8.75 8.125 C9.36681641 8.96998047 9.36681641 8.96998047 9.99609375 9.83203125 C11.00476085 11.21601634 12.00339286 12.60730541 13 14 C10 14 10 14 7.5 11.875 C5 9 5 9 2 3 C1.67 15.54 1.34 28.08 1 41 C0.67 41 0.34 41 0 41 C0 27.47 0 13.94 0 0 Z " fill="#EBEAE8" transform="translate(430,709)"/>
<path d="M0 0 C13.365 0.495 13.365 0.495 27 1 C27.33 1.99 27.66 2.98 28 4 C25.18743719 4.02684312 22.37512759 4.04676188 19.5625 4.0625 C18.76005859 4.07087891 17.95761719 4.07925781 17.13085938 4.08789062 C15.08704779 4.0965143 13.04316098 4.0522815 11 4 C10.67 3.67 10.34 3.34 10 3 C7.68047431 2.71898054 5.36114486 2.55217375 3.03125 2.37890625 C2.3609375 2.25386719 1.690625 2.12882813 1 2 C0.67 1.34 0.34 0.68 0 0 Z " fill="#ECECEA" transform="translate(677,536)"/>
<path d="M0 0 C2.475 0.99 2.475 0.99 5 2 C5 2.66 5 3.32 5 4 C8.65079826 5.61064629 12.0507432 6.44894091 16 7 C16 7.99 16 8.98 16 10 C14.07949388 9.60140439 12.16364288 9.18034074 10.25 8.75 C9.18265625 8.51796875 8.1153125 8.2859375 7.015625 8.046875 C3.68714188 6.89139122 2.14570335 5.77066549 0 3 C0 2.01 0 1.02 0 0 Z " fill="#ECEBEA" transform="translate(753,699)"/>
<path d="M0 0 C0 3.96 0 7.92 0 12 C-5.61 11.67 -11.22 11.34 -17 11 C-17 10.67 -17 10.34 -17 10 C-12.38 10 -7.76 10 -3 10 C-3 7.03 -3 4.06 -3 1 C-1 0 -1 0 0 0 Z " fill="#222221" transform="translate(634,738)"/>
<path d="M0 0 C-2.22887433 2.56320548 -3.6748729 3.40785408 -7 4 C-9.08234592 4.06743348 -11.16668557 4.08514472 -13.25 4.0625 C-14.32765625 4.05347656 -15.4053125 4.04445313 -16.515625 4.03515625 C-17.33546875 4.02355469 -18.1553125 4.01195312 -19 4 C-17 1 -17 1 -13.59375 0.234375 C-12.23088082 0.05903511 -10.86609764 -0.10189969 -9.5 -0.25 C-8.81035156 -0.34023438 -8.12070312 -0.43046875 -7.41015625 -0.5234375 C-2.28556711 -1.14278356 -2.28556711 -1.14278356 0 0 Z " fill="#E5E4E3" transform="translate(367,750)"/>
<path d="M0 0 C0.66 0 1.32 0 2 0 C2.66 2.64 3.32 5.28 4 8 C-0.62 8 -5.24 8 -10 8 C-10 7.34 -10 6.68 -10 6 C-4.555 5.505 -4.555 5.505 1 5 C0.67 3.35 0.34 1.7 0 0 Z " fill="#2C2C2B" transform="translate(786,693)"/>
<path d="M0 0 C2.22909871 -0.02714735 4.45829367 -0.04646254 6.6875 -0.0625 C7.92886719 -0.07410156 9.17023437 -0.08570313 10.44921875 -0.09765625 C13.46235454 -0.01478673 16.08275339 0.29160551 19 1 C15.25764681 3.44989101 11.55774581 3.23086143 7.25 3.125 C6.55261719 3.11597656 5.85523438 3.10695313 5.13671875 3.09765625 C3.42433042 3.07419888 1.71211996 3.03833104 0 3 C0 2.01 0 1.02 0 0 Z " fill="#151514" transform="translate(756,680)"/>
<path d="M0 0 C0.33 0.99 0.66 1.98 1 3 C-4.94 3 -10.88 3 -17 3 C-17 2.34 -17 1.68 -17 1 C-14.54171921 0.83252588 -12.08338135 0.6659856 -9.625 0.5 C-8.92632812 0.45230469 -8.22765625 0.40460937 -7.5078125 0.35546875 C-2.2265625 0 -2.2265625 0 0 0 Z " fill="#060605" transform="translate(459,651)"/>
<path d="M0 0 C11.385 0.99 11.385 0.99 23 2 C23 2.33 23 2.66 23 3 C12.11 3.495 12.11 3.495 1 4 C0.67 2.68 0.34 1.36 0 0 Z " fill="#EBEBEA" transform="translate(679,312)"/>
<path d="M0 0 C0.33 0 0.66 0 1 0 C1.02187378 1.02939697 1.02187378 1.02939697 1.04418945 2.07958984 C1.11850151 5.17863901 1.21521582 8.27659055 1.3125 11.375 C1.34633789 12.99535156 1.34633789 12.99535156 1.38085938 14.6484375 C1.41630859 15.6796875 1.45175781 16.7109375 1.48828125 17.7734375 C1.51446533 18.72653809 1.54064941 19.67963867 1.56762695 20.66162109 C1.78165161 21.81911865 1.78165161 21.81911865 2 23 C2.99 23.66 3.98 24.32 5 25 C1.125 27 1.125 27 0 27 C0 18.09 0 9.18 0 0 Z " fill="#E3E3E0" transform="translate(520,681)"/>
<path d="M0 0 C1.17175781 0.03480469 2.34351563 0.06960938 3.55078125 0.10546875 C5.32001953 0.14607422 5.32001953 0.14607422 7.125 0.1875 C8.02863281 0.22230469 8.93226563 0.25710938 9.86328125 0.29296875 C9.86328125 1.28296875 9.86328125 2.27296875 9.86328125 3.29296875 C4.58328125 3.29296875 -0.69671875 3.29296875 -6.13671875 3.29296875 C-3.13671875 0.29296875 -3.13671875 0.29296875 0 0 Z " fill="#151514" transform="translate(518.13671875,651.70703125)"/>
<path d="M0 0 C1.90608098 3.21182149 2.22266247 5.53882603 2.125 9.25 C2.10695313 10.14203125 2.08890625 11.0340625 2.0703125 11.953125 C2.04710937 12.62859375 2.02390625 13.3040625 2 14 C1.01 14 0.02 14 -1 14 C-1.02685938 11.85423363 -1.04633088 9.70837355 -1.0625 7.5625 C-1.07410156 6.36753906 -1.08570313 5.17257812 -1.09765625 3.94140625 C-1 1 -1 1 0 0 Z " fill="#E5E5E4" transform="translate(496,606)"/>
<path d="M0 0 C2 2 2 2 2.25 5.875 C2.18064077 9.05396475 1.80254921 11.29617618 0 14 C-0.99293628 11.02119115 -1.13406411 8.98398802 -1.125 5.875 C-1.12757813 4.98554687 -1.13015625 4.09609375 -1.1328125 3.1796875 C-1 1 -1 1 0 0 Z " fill="#E8E8E6" transform="translate(373,709)"/>
<path d="M0 0 C0.33 0 0.66 0 1 0 C0.63076923 7.26153846 0.63076923 7.26153846 -2.5625 11 C-3.366875 11.66 -4.17125 12.32 -5 13 C-5.66 12.34 -6.32 11.68 -7 11 C-6.34 11 -5.68 11 -5 11 C-4.731875 10.29875 -4.46375 9.5975 -4.1875 8.875 C-2.9318551 5.8350176 -1.49764877 2.9272226 0 0 Z " fill="#151514" transform="translate(693,699)"/>
<path d="M0 0 C0.99 0 1.98 0 3 0 C3.69906942 1.59915881 4.38389468 3.20455045 5.0625 4.8125 C5.63677734 6.15248047 5.63677734 6.15248047 6.22265625 7.51953125 C7 10 7 10 6 13 C1.94371737 9.6812233 1.13409766 4.9144232 0 0 Z " fill="#EAEAE9" transform="translate(404,516)"/>
<path d="M0 0 C0.66 0.33 1.32 0.66 2 1 C1.01 1 0.02 1 -1 1 C-0.67 0.67 -0.34 0.34 0 0 Z M-3 2 C-2.34 2.33 -1.68 2.66 -1 3 C-2.98 3.99 -2.98 3.99 -5 5 C-4.34 4.01 -3.68 3.02 -3 2 Z M-5 5 C-6.49097658 8.7952131 -8.75700849 10.61042731 -12 13 C-12.33 12.01 -12.66 11.02 -13 10 C-7.25 5 -7.25 5 -5 5 Z " fill="#161616" transform="translate(642,330)"/>
<path d="M0 0 C0.99 0 1.98 0 3 0 C3.28875 0.78375 3.5775 1.5675 3.875 2.375 C4.84912254 5.09671632 4.84912254 5.09671632 7 7 C6.34 8.65 5.68 10.3 5 12 C3.20931427 9.3139714 2.33944209 7.3373411 1.375 4.3125 C1.11460937 3.50425781 0.85421875 2.69601562 0.5859375 1.86328125 C0.39257812 1.24839844 0.19921875 0.63351562 0 0 Z " fill="#E9E8E7" transform="translate(367,317)"/>
<path d="M0 0 C0.33 0 0.66 0 1 0 C1.06058594 0.86882812 1.12117187 1.73765625 1.18359375 2.6328125 C1.26738281 3.78523438 1.35117187 4.93765625 1.4375 6.125 C1.51871094 7.26195312 1.59992187 8.39890625 1.68359375 9.5703125 C1.97730965 12.7540478 2.43124313 15.85510907 3 19 C2.01 18.67 1.02 18.34 0 18 C-0.90375653 11.67370431 -0.90375653 6.32629569 0 0 Z " fill="#1D1C1B" transform="translate(623,403)"/>
<path d="M0 0 C4.29 0 8.58 0 13 0 C13 0.33 13 0.66 13 1 C9.37 1.33 5.74 1.66 2 2 C3.40375831 5.54321888 3.40375831 5.54321888 5 9 C4.01 9 3.02 9 2 9 C0.50178941 5.62902617 0 3.79557881 0 0 Z " fill="#151514" transform="translate(738,732)"/>
<path d="M0 0 C0.99 0 1.98 0 3 0 C3 4.29 3 8.58 3 13 C2.34 13 1.68 13 1 13 C0.67 8.71 0.34 4.42 0 0 Z " fill="#DEDEDD" transform="translate(331,711)"/>
<path d="M0 0 C5.29158974 1.40071493 7.77478044 4.85487245 11 9 C7.25983417 9 6.54723807 8.0658409 3.8125 5.625 C3.09707031 4.99851562 2.38164063 4.37203125 1.64453125 3.7265625 C0 2 0 2 0 0 Z " fill="#E9E9E8" transform="translate(760,336)"/>
<path d="M0 0 C-1.24420647 0.5345256 -2.49570936 1.05208611 -3.75 1.5625 C-4.44609375 1.85253906 -5.1421875 2.14257812 -5.859375 2.44140625 C-8.30012784 3.07831803 -9.6403655 2.80248831 -12 2 C-10 -1 -10 -1 -7.125 -1.8125 C-3.92411417 -2.00455315 -2.63390925 -1.72217143 0 0 Z " fill="#EBEAE9" transform="translate(666,320)"/>
<path d="M0 0 C0 3 0 3 -1.42578125 4.53515625 C-2.04839844 5.03917969 -2.67101562 5.54320312 -3.3125 6.0625 C-3.92738281 6.56910156 -4.54226563 7.07570313 -5.17578125 7.59765625 C-6.73585456 8.79694173 -8.36271732 9.90847821 -10 11 C-10.99 10.67 -11.98 10.34 -13 10 C-11.60577063 7.21154126 -9.6245092 7.03730368 -6.85546875 5.9296875 C-4.01049958 4.50420821 -2.09580328 2.34984004 0 0 Z " fill="#070706" transform="translate(549,640)"/>
<path d="M0 0 C0.66 0.33 1.32 0.66 2 1 C2 5.95 2 10.9 2 16 C1.67 16 1.34 16 1 16 C0.67 12.7 0.34 9.4 0 6 C-0.33 6 -0.66 6 -1 6 C-1.042721 4.33388095 -1.04063832 2.66617115 -1 1 C-0.67 0.67 -0.34 0.34 0 0 Z " fill="#191817" transform="translate(568,393)"/>
<path d="M0 0 C8.57142857 0.85714286 8.57142857 0.85714286 12 3 C3.57142857 4.42857143 3.57142857 4.42857143 -1 2 C-0.67 1.34 -0.34 0.68 0 0 Z " fill="#141313" transform="translate(750,747)"/>
<path d="M0 0 C0.66 0 1.32 0 2 0 C2 0.66 2 1.32 2 2 C6.29 2 10.58 2 15 2 C15 2.33 15 2.66 15 3 C6.585 3.495 6.585 3.495 -2 4 C-1.34 2.68 -0.68 1.36 0 0 Z " fill="#EAE9E8" transform="translate(410,619)"/>
<path d="M0 0 C1.35015859 4.05047576 0.62084998 6.7920168 0 11 C-0.99 10.34 -1.98 9.68 -3 9 C-2.4140625 2.84765625 -2.4140625 2.84765625 -2 1 C-1.34 0.67 -0.68 0.34 0 0 Z " fill="#171715" transform="translate(482,600)"/>
<path d="M0 0 C2 3.75 2 3.75 2 6 C1.34 6 0.68 6 0 6 C0 6.99 0 7.98 0 9 C-0.99 9 -1.98 9 -3 9 C-2.25 2.25 -2.25 2.25 0 0 Z " fill="#EAE9E8" transform="translate(798,449)"/>
<path d="M0 0 C0.33 0 0.66 0 1 0 C0.50769231 6.52307692 0.50769231 6.52307692 -2.0625 8.9375 C-2.701875 9.288125 -3.34125 9.63875 -4 10 C-4.33 9.01 -4.66 8.02 -5 7 C-4.01 7 -3.02 7 -2 7 C-2.061875 5.824375 -2.061875 5.824375 -2.125 4.625 C-2 2 -2 2 0 0 Z " fill="#EAEAE8" transform="translate(776,728)"/>
<path d="M0 0 C0.66 0 1.32 0 2 0 C3.28006797 1.78398614 4.47660351 3.62853906 5.625 5.5 C6.57246094 7.03140625 6.57246094 7.03140625 7.5390625 8.59375 C8.02117187 9.3878125 8.50328125 10.181875 9 11 C5.77651004 9.92550335 4.95861919 9.13675431 2.8125 6.625 C2.28269531 6.01914062 1.75289063 5.41328125 1.20703125 4.7890625 C0 3 0 3 0 0 Z " fill="#141313" transform="translate(434,691)"/>
<path d="M0 0 C0.33 0.66 0.66 1.32 1 2 C-2.63 2.33 -6.26 2.66 -10 3 C-8 0 -8 0 -5 -0.75 C-2 -1 -2 -1 0 0 Z " fill="#E9E8E6" transform="translate(718,536)"/>
<path d="M0 0 C0.66 0 1.32 0 2 0 C2 0.99 2 1.98 2 3 C4.31 3 6.62 3 9 3 C9.33 3.66 9.66 4.32 10 5 C7.25 5.75 7.25 5.75 4 6 C1.625 4.1875 1.625 4.1875 0 2 C0 1.34 0 0.68 0 0 Z " fill="#191918" transform="translate(701,450)"/>
<path d="M0 0 C-3.08559304 2.26881841 -4.42209376 3.05451946 -8.3125 2.6875 C-9.199375 2.460625 -10.08625 2.23375 -11 2 C-7.06425135 -0.62383243 -4.54354105 -1.51451368 0 0 Z " fill="#181817" transform="translate(514,574)"/>
<path d="M0 0 C0.99 0.33 1.98 0.66 3 1 C3 1.66 3 2.32 3 3 C6.63 3 10.26 3 14 3 C14 3.33 14 3.66 14 4 C7.565 4.495 7.565 4.495 1 5 C0.67 3.35 0.34 1.7 0 0 Z " fill="#161614" transform="translate(774,695)"/>
<path d="M0 0 C3.96 0.33 7.92 0.66 12 1 C12 1.33 12 1.66 12 2 C5.565 2.495 5.565 2.495 -1 3 C-0.67 2.01 -0.34 1.02 0 0 Z " fill="#EAEAE9" transform="translate(652,370)"/>
<path d="M0 0 C1.06546953 3.1964086 1.07427838 5.65747276 1 9 C0.01 9.33 -0.98 9.66 -2 10 C-1.85950482 8.52031676 -1.71245174 7.04125484 -1.5625 5.5625 C-1.48128906 4.73878906 -1.40007812 3.91507813 -1.31640625 3.06640625 C-1 1 -1 1 0 0 Z " fill="#1B1B1B" transform="translate(319,703)"/>
<path d="M0 0 C3.77545388 1.09068668 6.47043472 1.9083091 9 5 C5.1936543 4.32829194 1.64793184 3.27253436 -2 2 C-1.34 1.34 -0.68 0.68 0 0 Z " fill="#161615" transform="translate(367,683)"/>
<path d="M0 0 C0.99 0 1.98 0 3 0 C5.125 4.625 5.125 4.625 4 8 C3.34 7.67 2.68 7.34 2 7 C1.26924352 4.6859378 0.59861742 2.35171131 0 0 Z " fill="#EAEAE9" transform="translate(362,414)"/>
<path d="M0 0 C0.99 0 1.98 0 3 0 C2.43628586 3.26954202 1.50037734 4.82575883 -1 7 C-1.66 6.34 -2.32 5.68 -3 5 C-1.6875 2.5 -1.6875 2.5 0 0 Z " fill="#141312" transform="translate(573,380)"/>
<path d="M0 0 C4.40114397 0.50298788 6.71195019 2.08772731 10 5 C7 6 7 6 4.3125 4.6875 C3.549375 4.130625 2.78625 3.57375 2 3 C2 2.34 2 1.68 2 1 C1.34 0.67 0.68 0.34 0 0 Z " fill="#141313" transform="translate(802,367)"/>
<path d="M0 0 C0.66 1.32 1.32 2.64 2 4 C1.01 5.32 0.02 6.64 -1 8 C-1.99 7.67 -2.98 7.34 -4 7 C-2.68 4.69 -1.36 2.38 0 0 Z " fill="#E9E9E7" transform="translate(701,711)"/>
<path d="M0 0 C2.64465038 3.1254959 3.84414715 6.08788267 5 10 C2 9 2 9 0.8125 7.25 C-0.10819096 4.70039426 -0.14948718 2.69076919 0 0 Z " fill="#F4F4F4" transform="translate(281,604)"/>
<path d="M0 0 C1.2077558 3.62326739 0.54311128 4.64146369 -1 8 C-1.66 7.67 -2.32 7.34 -3 7 C-3.625 3.9375 -3.625 3.9375 -4 1 C-3.34 1.66 -2.68 2.32 -2 3 C-1.34 2.01 -0.68 1.02 0 0 Z " fill="#F8F7F7" transform="translate(430,460)"/>
<path d="M0 0 C2.46278801 2.46278801 2.99771255 4.70676982 4 8 C3.34 8 2.68 8 2 8 C1.67 8.66 1.34 9.32 1 10 C0.67 6.7 0.34 3.4 0 0 Z " fill="#EBECEB" transform="translate(349,378)"/>
<path d="M0 0 C0.33 0.66 0.66 1.32 1 2 C1.66 2 2.32 2 3 2 C3 2.99 3 3.98 3 5 C1.35 4.67 -0.3 4.34 -2 4 C-2.33 3.01 -2.66 2.02 -3 1 C-2.01 0.67 -1.02 0.34 0 0 Z " fill="#E8E8E6" transform="translate(773,706)"/>
<path d="M0 0 C0.99 0 1.98 0 3 0 C3.99 2.31 4.98 4.62 6 7 C5.01 7 4.02 7 3 7 C2.01 4.69 1.02 2.38 0 0 Z " fill="#E9EAE8" transform="translate(243,704)"/>
<path d="M0 0 C0.66 0 1.32 0 2 0 C4.83022097 3.99560608 3.76210446 7.42737323 3 12 C2.67 12 2.34 12 2 12 C1.34 8.04 0.68 4.08 0 0 Z " fill="#E9E8E7" transform="translate(653,602)"/>
<path d="M0 0 C0.66 0 1.32 0 2 0 C3.0625 1.8125 3.0625 1.8125 4 4 C3.67 4.99 3.34 5.98 3 7 C1.68 5.68 0.36 4.36 -1 3 C-0.67 2.01 -0.34 1.02 0 0 Z " fill="#151414" transform="translate(425,464)"/>
</svg>
